<?xml version="1.0" standalone="no"?><!DOCTYPE svg PUBLIC "-//W3C//DTD SVG 1.1//EN" "http://www.w3.org/Graphics/SVG/1.1/DTD/svg11.dtd"><svg class="icon" width="200px" height="200.00px" viewBox="0 0 1024 1024" version="1.1" xmlns="http://www.w3.org/2000/svg"><path d="M768 352L960 192 768 32v127.808c-20.48-0.256-41.344-0.64-62.4-1.088-81.92-1.664-165.632-3.328-233.728 5.568-47.744 6.208-92.992 18.048-126.912 42.112-35.968 25.6-56.96 63.36-56.96 113.6 0 52.224 28.8 95.872 62.72 131.968 29.312 31.104 66.432 60.608 100.992 88.064l16.32 12.992c40.448 32.32 74.88 61.696 95.808 91.456 19.904 28.16 25.216 52.736 14.464 79.68-12.096 30.08-42.688 59.52-88.96 86.784-45.632 26.752-102.016 48.896-158.848 66.56a1469.248 1469.248 0 0 1-210.432 47.744 492.224 492.224 0 0 1-22.272 2.688L96 928a32 32 0 0 0 0 64c11.52 0 46.464-4.608 90.496-13.056a1531.392 1531.392 0 0 0 163.008-40.32c59.2-18.432 120.768-42.24 172.16-72.512 50.688-29.76 96.128-68.352 116.032-118.208 21.248-53.12 6.528-100.544-21.568-140.352-27.008-38.272-68.608-72.896-108.16-104.512l-16.896-13.44c-34.944-27.84-67.84-54.016-93.76-81.536C367.232 376.192 352 347.776 352 320c0-29.696 11.008-47.936 30.016-61.44 21.12-14.912 53.824-25.024 98.112-30.848 63.04-8.192 138.88-6.656 218.688-5.12 22.848 0.512 45.952 0.96 69.184 1.28V352z" fill="#8A8A8A" /></svg>