<?xml version="1.0" standalone="no"?><!DOCTYPE svg PUBLIC "-//W3C//DTD SVG 1.1//EN" "http://www.w3.org/Graphics/SVG/1.1/DTD/svg11.dtd"><svg class="icon" width="200px" height="200.00px" viewBox="0 0 1024 1024" version="1.1" xmlns="http://www.w3.org/2000/svg"><path d="M25.6 793.6a25.6 25.6 0 0 1-12.032-48.128L70.4 716.8a25.6 25.6 0 0 1 23.808 45.312l-56.576 28.416A25.6 25.6 0 0 1 25.6 793.6zM155.904 724.992a25.6 25.6 0 0 1-12.032-48.128l122.88-64.512a25.6 25.6 0 0 1 23.808 45.312l-122.88 64.512a25.6 25.6 0 0 1-11.776 2.816z m196.352-102.4a25.6 25.6 0 0 1-12.032-48.128l122.88-64.512a25.6 25.6 0 0 1 23.296 44.032l-122.88 64.512a25.6 25.6 0 0 1-11.008 3.072z m196.352-102.4a25.6 25.6 0 0 1-11.008-50.176l122.88-64.512a25.6 25.6 0 0 1 23.808 45.312l-122.88 64.512a25.6 25.6 0 0 1-12.544 2.816z m196.352-102.4a25.6 25.6 0 0 1-12.032-48.128l122.88-64.512a25.6 25.6 0 0 1 23.808 45.312l-122.88 64.512a25.6 25.6 0 0 1-11.52-0.256zM941.824 311.296a25.6 25.6 0 0 1-12.032-48.128l56.576-29.696a25.6 25.6 0 0 1 23.808 45.312L953.6 307.2a25.6 25.6 0 0 1-11.776 4.096z" fill="#4F4F4F" /></svg>