<?xml version="1.0" standalone="no"?><!DOCTYPE svg PUBLIC "-//W3C//DTD SVG 1.1//EN" "http://www.w3.org/Graphics/SVG/1.1/DTD/svg11.dtd"><svg class="icon" width="200px" height="199.80px" viewBox="0 0 1025 1024" version="1.1" xmlns="http://www.w3.org/2000/svg"><path d="M328.21903 1008.64c-46.08 0-87.04-15.36-128-40.96-66.56-46.08-97.28-128-81.92-209.92C128.53903 701.44 108.05903 640 67.09903 599.04 5.65903 542.72-14.82097 455.68 10.77903 378.88S102.93903 245.76 184.85903 230.4c56.32-10.24 107.52-46.08 133.12-97.28C353.81903 61.44 430.61903 15.36 512.53903 15.36s158.72 46.08 194.56 117.76c25.6 51.2 76.8 92.16 133.12 97.28 81.92 10.24 148.48 66.56 174.08 148.48 25.6 76.8 5.12 163.84-56.32 220.16-40.96 40.96-61.44 102.4-51.2 158.72 15.36 81.92-20.48 163.84-87.04 209.92S666.13903 1024 594.45903 983.04c-51.2-25.6-112.64-25.6-168.96 0-25.6 20.48-61.44 25.6-97.28 25.6zM512.53903 926.72c35.84 0 66.56 10.24 102.4 25.6 61.44 30.72 133.12 25.6 189.44-15.36s81.92-107.52 71.68-174.08c-10.24-71.68 10.24-143.36 61.44-189.44 51.2-51.2 66.56-117.76 46.08-184.32s-76.8-112.64-143.36-122.88C768.53903 256 712.21903 209.92 676.37903 148.48c-30.72-61.44-92.16-102.4-158.72-102.4-71.68 0-128 35.84-158.72 102.4-40.96 66.56-97.28 107.52-168.96 117.76S67.09903 322.56 46.61903 389.12c-20.48 66.56-5.12 133.12 46.08 184.32s71.68 122.88 61.44 189.44c-10.24 66.56 15.36 133.12 71.68 174.08s128 46.08 189.44 15.36c30.72-15.36 61.44-25.6 97.28-25.6z" /></svg>