<?xml version="1.0" standalone="no"?><!DOCTYPE svg PUBLIC "-//W3C//DTD SVG 1.1//EN" "http://www.w3.org/Graphics/SVG/1.1/DTD/svg11.dtd"><svg class="icon" width="200px" height="200.00px" viewBox="0 0 1024 1024" version="1.1" xmlns="http://www.w3.org/2000/svg"><path d="M896 1024H128c-70.4 0-128-57.6-128-128V128C0 57.6 57.6 0 128 0h768c70.4 0 128 57.6 128 128v768c0 70.4-57.6 128-128 128zM128 64c-38.4 0-64 25.6-64 64v768c0 38.4 25.6 64 64 64h768c38.4 0 64-25.6 64-64V128c0-38.4-25.6-64-64-64H128z" fill="#8a8a8a" /></svg>