<?xml version="1.0" standalone="no"?><!DOCTYPE svg PUBLIC "-//W3C//DTD SVG 1.1//EN" "http://www.w3.org/Graphics/SVG/1.1/DTD/svg11.dtd"><svg class="icon" width="200px" height="200.00px" viewBox="0 0 1024 1024" version="1.1" xmlns="http://www.w3.org/2000/svg"><path d="M128 332.8a122.88 122.88 0 0 1 122.88-122.88h522.24a122.88 122.88 0 0 1 122.88 122.88v358.4a122.88 122.88 0 0 1-122.88 122.88H250.88a122.88 122.88 0 0 1-122.88-122.88v-358.4z" fill="#FFFFFF" /><path d="M103.424 332.8a147.456 147.456 0 0 1 147.456-147.456h522.24a147.456 147.456 0 0 1 147.456 147.456v358.4a147.456 147.456 0 0 1-147.456 147.456H250.88a147.456 147.456 0 0 1-147.456-147.456v-358.4z m147.456-98.304a98.304 98.304 0 0 0-98.304 98.304v358.4a98.304 98.304 0 0 0 98.304 98.304h522.24a98.304 98.304 0 0 0 98.304-98.304v-358.4a98.304 98.304 0 0 0-98.304-98.304H250.88z" fill="#949EB6" /></svg>