<?xml version="1.0" standalone="no"?><!DOCTYPE svg PUBLIC "-//W3C//DTD SVG 1.1//EN" "http://www.w3.org/Graphics/SVG/1.1/DTD/svg11.dtd"><svg class="icon" width="200px" height="200.00px" viewBox="0 0 1024 1024" version="1.1" xmlns="http://www.w3.org/2000/svg"><path d="M732.558222 113.777778a113.777778 113.777778 0 0 1 109.056 81.351111l169.130667 568.888889A113.777778 113.777778 0 0 1 901.688889 910.222222H122.311111a113.777778 113.777778 0 0 1-109.056-146.261333l169.585778-568.888889A113.777778 113.777778 0 0 1 291.896889 113.777778h440.661333z m-17.294222 66.389333H304.924444a56.888889 56.888889 0 0 0-54.499555 40.561778l-164.408889 549.944889a56.888889 56.888889 0 0 0 54.442667 73.159111H884.622222a56.888889 56.888889 0 0 0 54.385778-73.614222l-169.358222-549.944889a56.888889 56.888889 0 0 0-54.385778-40.106667z" fill="#707070" /></svg>